<?xml version="1.0" encoding="utf-8"?>
<!-- Generator: Adobe Illustrator 22.1.0, SVG Export Plug-In . SVG Version: 6.00 Build 0)  -->
<svg version="1.1" id="Layer_1" xmlns="http://www.w3.org/2000/svg" xmlns:xlink="http://www.w3.org/1999/xlink" x="0px" y="0px"
	 viewBox="0 0 312.4 41.5" style="enable-background:new 0 0 312.4 41.5;" xml:space="preserve">
<style type="text/css">
	.st0{fill:#231F20;}
</style>
<g>
	<path class="st0" d="M262.1,21.2c-2.2-1.5-4.7-2.6-7.1-3.9c-1.5-0.8-3.1-1.6-4.4-2.7c-2.2-1.8-1.8-5.5,0.6-7.1
		c3.4-2.2,8.9-1,9.5,3.6c0,0.1,0.1,0.2,0.2,0.2h5.1c0.1,0,0.2-0.1,0.2-0.2c-0.3-3.2-1.5-5.8-3.7-7.5c-2.1-1.6-4.6-2.5-7.2-2.5
		c-13.4,0-14.6,14.2-7.4,18.7c0.8,0.5,7.9,4.1,10.4,5.6c2.5,1.6,3.3,4.4,2.2,6.6c-1,2.1-3.6,3.4-6.1,3.3c-2.8-0.1-5-1.7-5.7-4.1
		c-0.1-0.4-0.2-1.2-0.2-1.6c0-0.1-0.1-0.2-0.2-0.2h-5.5c-0.1,0-0.2,0.1-0.2,0.2c0,4,1,6.2,3.7,8.2c2.5,1.9,5.3,2.7,8.2,2.7
		c7.5,0,11.4-4.3,12.2-8.7C267.3,27.6,266,23.7,262.1,21.2z"/>
	<path class="st0" d="M23.5,1.9H21h-2.7c-0.1,0-0.2,0.1-0.2,0.1l-4.5,14.9c-0.1,0.2-0.3,0.2-0.4,0L8.8,2c0-0.1-0.1-0.1-0.2-0.1H5.9
		H3.5H0.2C0.1,1.9,0,2,0,2.1v38c0,0.1,0.1,0.2,0.2,0.2h5.5c0.1,0,0.2-0.1,0.2-0.2V11.2c0-0.2,0.3-0.3,0.4-0.1l4.6,15l0.3,1
		c0,0.1,0.1,0.1,0.2,0.1h4.2c0.1,0,0.2-0.1,0.2-0.1l0.3-1l4.6-15c0-0.2,0.3-0.1,0.3,0.1v28.9c0,0.1,0.1,0.2,0.2,0.2h5.5
		c0.1,0,0.2-0.1,0.2-0.2v-38c0-0.1-0.1-0.2-0.2-0.2C26.7,1.9,23.5,1.9,23.5,1.9z"/>
	<path class="st0" d="M177.9,1.9c-0.1,0-0.2,0.1-0.2,0.1l-4.5,14.9c-0.1,0.2-0.3,0.2-0.4,0L168.3,2c0-0.1-0.1-0.1-0.2-0.1h-8.4
		c-0.1,0-0.2,0.1-0.2,0.2v38c0,0.1,0.1,0.2,0.2,0.2h5.5c0.1,0,0.2-0.1,0.2-0.2V11.2c0-0.2,0.3-0.3,0.4-0.1l4.6,15l0.3,1
		c0,0.1,0.1,0.1,0.2,0.1h4.2c0.1,0,0.2-0.1,0.2-0.1l0.3-1l4.6-15c0.1-0.2,0.4-0.2,0.4,0.1v28.9c0,0.1,0.1,0.2,0.2,0.2h5.5
		c0.1,0,0.2-0.1,0.2-0.2v-38c0-0.1-0.1-0.2-0.2-0.2C186.3,1.9,177.9,1.9,177.9,1.9z"/>
	<path class="st0" d="M107.1,1.9H96.8h-5.5H81.1c-0.1,0-0.2,0.1-0.2,0.2v4.7C80.9,6.9,81,7,81.1,7h10v33c0,0.1,0.1,0.2,0.2,0.2h5.5
		c0.1,0,0.2-0.1,0.2-0.2V7h10c0.1,0,0.2-0.1,0.2-0.2V2.1C107.3,2,107.2,1.9,107.1,1.9z"/>
	<path class="st0" d="M139.5,40.3h5c0.1,0,0.2-0.1,0.2-0.3L134.3,1.9c0-0.1-0.1-0.1-0.2-0.1h-1.9h-3.4H127c-0.1,0-0.2,0.1-0.2,0.1
		L116.5,40c0,0.1,0.1,0.3,0.2,0.3h5c0.1,0,0.2-0.1,0.2-0.1l3-11.1c0-0.1,0.1-0.1,0.2-0.1h11.1c0.1,0,0.2,0.1,0.2,0.1l3,11.1
		C139.3,40.2,139.4,40.3,139.5,40.3z M126.3,23.5l4-14.8c0.1-0.2,0.3-0.2,0.4,0l4,14.8c0,0.1-0.1,0.3-0.2,0.3h-8
		C126.4,23.7,126.3,23.6,126.3,23.5z"/>
	<path class="st0" d="M224.8,40.3h5c0.1,0,0.2-0.1,0.2-0.3L219.6,1.9c0-0.1-0.1-0.1-0.2-0.1h-1.9h-3.4h-1.9c-0.1,0-0.2,0.1-0.2,0.1
		L201.7,40c0,0.1,0.1,0.3,0.2,0.3h5c0.1,0,0.2-0.1,0.2-0.1l3-11.1c0-0.1,0.1-0.1,0.2-0.1h11.1c0.1,0,0.2,0.1,0.2,0.1l3,11.1
		C224.6,40.2,224.7,40.3,224.8,40.3z M211.6,23.5l4-14.8c0.1-0.2,0.3-0.2,0.4,0l4,14.8c0,0.1-0.1,0.3-0.2,0.3h-8
		C211.7,23.7,211.6,23.6,211.6,23.5z"/>
	<path class="st0" d="M49.2,34.7V22.9c0-0.1,0.1-0.2,0.2-0.2H64c0.1,0,0.2-0.1,0.2-0.2v-4.7c0-0.1-0.1-0.2-0.2-0.2H49.4
		c-0.1,0-0.2-0.1-0.2-0.2V7.2c0-0.1,0.1-0.2,0.2-0.2H66c0.1,0,0.2-0.1,0.2-0.2V2.1c0-0.1-0.1-0.2-0.2-0.2H49.2h-5.7
		c-0.1,0-0.2,0.1-0.2,0.2V7v10.5v5.1v12.2V40c0,0.1,0.1,0.2,0.2,0.2h5.7h17.6c0.1,0,0.2-0.1,0.2-0.2v-5c0-0.1-0.1-0.2-0.2-0.2H49.4
		C49.3,34.9,49.2,34.8,49.2,34.7z"/>
	<path class="st0" d="M312.3,39.9l-19-19.7c-0.1-0.1-0.1-0.2,0-0.3l17.1-17.7c0.1-0.1,0-0.3-0.1-0.3h-7c-0.1,0-0.1,0-0.1,0.1
		l-14.5,15.1c-0.1,0.1-0.3,0-0.3-0.1V2.1c0-0.1-0.1-0.2-0.2-0.2h-5.5c-0.1,0-0.2,0.1-0.2,0.2v38c0,0.1,0.1,0.2,0.2,0.2h5.5
		c0.1,0,0.2-0.1,0.2-0.2V23.3c0-0.2,0.2-0.3,0.3-0.1l16.4,17l0.1,0.1h7C312.4,40.3,312.5,40.1,312.3,39.9z"/>
</g>
</svg>
